# xmcd CD database file
#
# Track frame offsets:
#	150
#	13630
#	26722
#	40629
#	48290
#	61977
#	75917
#	88554
#	101932
#	114661
#	128458
#	141489
#	153409
#	165343
#	179091
#	191967
#	204610
#	216417
#	230682
#	243676
#	258443
#	272655
#	285872
#	297155
#	310615
#
# Disc length: 4271 seconds
#
# Revision: 2
# Processed by: cddbd v1.5.2PL0 Copyright (c) Steve Scherf et al.
# Submitted via: CDex 1.70beta2
#
DISCID=6710ad19
DTITLE=Ernest Tubb - Texas Troubadour  -  Vol. 4
DYEAR=2003
DGENRE=Country
TTITLE0=The Last Thoughts Of Jimmie Rodgers
TTITLE1=I'm Missing You
TTITLE2=Time After Time
TTITLE3=Fort Worth Jail
TTITLE4=You Were Only Teasing Me
TTITLE5=A Lonely Heart Knows
TTITLE6=You Hit The Nail Right On The Head
TTITLE7=Headin' Down The Wrong Highway
TTITLE8=Waiting For A Train
TTITLE9=When I Take My Vacation In The Sky
TTITLE10=Stand By Me
TTITLE11=The Old Rugged Cross
TTITLE12=What A Friend We Have In Jesus
TTITLE13=The Wonderful City
TTITLE14=Farther Along
TTITLE15=Texas vs Kentucky
TTITLE16=G-I-R-L Spells Trouble
TTITLE17=I'm Free From The Chain Gang Now
TTITLE18=The Lovebug Itch
TTITLE19=Kentucky Waltz
TTITLE20=I'm With The Crowd But So Alone
TTITLE21=My Mother Must Have Been A Girl Like You
TTITLE22=Somebody Loves You
TTITLE23=Don't Trifle On Your Sweetheart
TTITLE24=Merry Texas Christmas, You All!
EXTD=YEAR: 2003
EXTT0=
EXTT1=
EXTT2=
EXTT3=
EXTT4=
EXTT5=
EXTT6=
EXTT7=
EXTT8=
EXTT9=
EXTT10=
EXTT11=
EXTT12=
EXTT13=
EXTT14=
EXTT15=
EXTT16=
EXTT17=
EXTT18=
EXTT19=
EXTT20=
EXTT21=
EXTT22=
EXTT23=
EXTT24=
PLAYORDER=
